<svg width="77" height="23" viewBox="0 0 77 23" fill="none" xmlns="http://www.w3.org/2000/svg">
<g clip-path="url(#clip0)">
<path fill-rule="evenodd" clip-rule="evenodd" d="M47.7694 17.9867C43.2947 21.2558 36.8091 23 31.225 23C23.3953 23 16.3466 20.1296 11.0139 15.3555C10.5949 14.9801 10.9703 14.4684 11.4731 14.7608C17.2281 18.0797 24.3439 20.0764 31.6943 20.0764C36.6515 20.0764 42.1049 19.0598 47.1191 16.9502C47.8766 16.6312 48.5101 17.4418 47.7694 17.9867" fill="#008CF1"/>
<path fill-rule="evenodd" clip-rule="evenodd" d="M49.6295 15.8771C49.0597 15.1528 45.8487 15.5349 44.4075 15.7043C43.9684 15.7575 43.9013 15.3787 44.2968 15.1063C46.8542 13.3223 51.0506 13.8372 51.54 14.4352C52.0293 15.0365 51.4126 19.206 49.0094 21.196C48.6407 21.5017 48.2888 21.3389 48.453 20.9336C48.9926 19.598 50.2026 16.6047 49.6295 15.8771" fill="#008CF1"/>
<path fill-rule="evenodd" clip-rule="evenodd" d="M44.508 2.51165V0.777435C44.508 0.514977 44.7091 0.338898 44.9504 0.338898H52.7835C53.0349 0.338898 53.236 0.5183 53.236 0.777435V2.26248C53.2327 2.51165 53.0215 2.83723 52.6461 3.35218L48.5871 9.09637C50.0954 9.05982 51.6875 9.28241 53.055 10.0465C53.3634 10.2193 53.4472 10.4718 53.4706 10.721V12.5714C53.4706 12.8239 53.1891 13.1196 52.8941 12.9668C50.4842 11.7143 47.2833 11.5781 44.6186 12.9801C44.3471 13.1263 44.0622 12.8339 44.0622 12.5814V10.8239C44.0622 10.5415 44.0656 10.0598 44.3505 9.63125L49.053 2.94687H44.9605C44.7091 2.94687 44.508 2.77079 44.508 2.51165" fill="#008CF1"/>
<path fill-rule="evenodd" clip-rule="evenodd" d="M15.9343 13.3322H13.5512C13.3232 13.3156 13.1422 13.1462 13.1255 12.9302V0.807319C13.1255 0.564794 13.3299 0.372102 13.5847 0.372102H15.8069C16.0382 0.382062 16.2225 0.558147 16.2393 0.777416V2.36213H16.2829C16.8627 0.830572 17.952 0.116287 19.4201 0.116287C20.9116 0.116287 21.8434 0.830572 22.5138 2.36213C23.0903 0.830572 24.4008 0.116287 25.8052 0.116287C26.804 0.116287 27.8967 0.524925 28.5637 1.44187C29.3179 2.4618 29.1637 3.94353 29.1637 5.24253L29.1603 12.8937C29.1603 13.1362 28.9559 13.3322 28.7011 13.3322H26.3214C26.0834 13.3156 25.8924 13.1262 25.8924 12.8937V6.46844C25.8924 5.95681 25.9393 4.68107 25.8253 4.19602C25.6477 3.38207 25.1147 3.15283 24.4243 3.15283C23.8478 3.15283 23.2445 3.53489 22.9998 4.14618C22.7551 4.75748 22.7786 5.78073 22.7786 6.46844V12.8937C22.7786 13.1362 22.5741 13.3322 22.3194 13.3322H19.9396C19.6983 13.3156 19.5106 13.1262 19.5106 12.8937L19.5072 6.46844C19.5072 5.11628 19.7318 3.12625 18.0392 3.12625C16.3264 3.12625 16.3935 5.06645 16.3935 6.46844V12.8937C16.3935 13.1362 16.189 13.3322 15.9343 13.3322" fill="#008CF1"/>
<path fill-rule="evenodd" clip-rule="evenodd" d="M59.9798 0.116287C63.5159 0.116287 65.4297 3.12626 65.4297 6.9535C65.4297 10.6512 63.3148 13.5847 59.9798 13.5847C56.5073 13.5847 54.6169 10.5748 54.6169 6.82393C54.6169 3.04984 56.5308 0.116287 59.9798 0.116287V0.116287ZM59.9999 2.59137C58.2435 2.59137 58.1329 4.96346 58.1329 6.44187C58.1329 7.9236 58.1095 11.0864 59.9798 11.0864C61.8266 11.0864 61.9137 8.5349 61.9137 6.98008C61.9137 5.95682 61.8702 4.73423 61.5584 3.76413C61.2903 2.92028 60.7574 2.59137 59.9999 2.59137" fill="#008CF1"/>
<path fill-rule="evenodd" clip-rule="evenodd" d="M70.0149 13.3322H67.6419C67.4039 13.3156 67.2128 13.1262 67.2128 12.8937L67.2095 0.767449C67.2296 0.544858 67.4274 0.372102 67.6687 0.372102H69.8775C70.0853 0.382062 70.2562 0.521603 70.3032 0.710972V2.56479H70.3467C71.0137 0.906985 71.9489 0.116287 73.5946 0.116287C74.6638 0.116287 75.7062 0.498347 76.3766 1.54486C77 2.51496 77 4.14618 77 5.31894V12.9502C76.9732 13.1628 76.7754 13.3322 76.5408 13.3322H74.151C73.9331 13.3156 73.7521 13.1561 73.7287 12.9502V6.36545C73.7287 5.03987 73.8829 3.09967 72.2371 3.09967C71.6573 3.09967 71.1244 3.48506 70.8596 4.06977C70.5244 4.81064 70.4808 5.54818 70.4808 6.36545V12.8937C70.4775 13.1362 70.2697 13.3322 70.0149 13.3322" fill="#008CF1"/>
<path fill-rule="evenodd" clip-rule="evenodd" d="M38.2637 7.54152C38.2637 8.46179 38.2871 9.22923 37.8179 10.0465C37.4391 10.711 36.8358 11.1196 36.1688 11.1196C35.2538 11.1196 34.7175 10.4286 34.7175 9.40863C34.7175 7.39534 36.5375 7.0299 38.2637 7.0299V7.54152V7.54152ZM40.6669 13.299C40.5093 13.4385 40.2814 13.4485 40.1038 13.3555C39.3128 12.7043 39.1686 12.402 38.7363 11.7807C37.4291 13.103 36.5006 13.4983 34.808 13.4983C32.8003 13.4983 31.2417 12.2724 31.2417 9.81727C31.2417 7.90033 32.2875 6.59468 33.7824 5.95681C35.0761 5.39202 36.8827 5.29236 38.2637 5.13621V4.83056C38.2637 4.2691 38.3072 3.60465 37.9721 3.1196C37.6838 2.68438 37.1274 2.50498 36.6347 2.50498C35.7264 2.50498 34.9186 2.96677 34.7209 3.92358C34.6806 4.13621 34.5231 4.34551 34.3052 4.35548L31.9959 4.10963C31.8015 4.06644 31.5836 3.9103 31.6406 3.61462C32.1702 0.837211 34.7041 0 36.9699 0C38.1296 0 39.6446 0.305648 40.5596 1.17608C41.7193 2.24917 41.6087 3.68106 41.6087 5.2392V8.92026C41.6087 10.0266 42.0713 10.5116 42.507 11.1096C42.6578 11.3222 42.6913 11.5781 42.4969 11.7375C42.0109 12.1395 41.1462 12.887 40.6702 13.3056L40.6669 13.299" fill="#008CF1"/>
<path fill-rule="evenodd" clip-rule="evenodd" d="M7.02194 7.54174C7.02194 8.462 7.0454 9.22944 6.57615 10.0467C6.1974 10.7112 5.59744 11.1198 4.92709 11.1198C4.01206 11.1198 3.47913 10.4288 3.47913 9.40884C3.47913 7.39556 5.29913 7.03011 7.02194 7.03011V7.54174V7.54174ZM9.42515 13.2992C9.26762 13.4387 9.0397 13.4487 8.86205 13.3557C8.07104 12.7045 7.93026 12.4022 7.49454 11.7809C6.18735 13.1032 5.26227 13.4985 3.56627 13.4985C1.56192 13.4985 0 12.2726 0 9.81748C0 7.90054 1.0491 6.59489 2.54063 5.95702C3.83441 5.39223 5.64101 5.29257 7.02194 5.13642V4.83078C7.02194 4.26931 7.06551 3.60486 6.73369 3.11981C6.44208 2.6846 5.88569 2.50519 5.39633 2.50519C4.48801 2.50519 3.67688 2.96699 3.47913 3.9238C3.43891 4.13642 3.28137 4.34573 3.06686 4.35569L0.754146 4.10984C0.559744 4.06666 0.345231 3.91051 0.398859 3.61483C0.931789 0.837424 3.46237 0.000213623 5.72816 0.000213623C6.88787 0.000213623 8.40286 0.305862 9.31789 1.17629C10.4776 2.24938 10.367 3.68127 10.367 5.23941V8.92047C10.367 10.0268 10.8295 10.5118 11.2653 11.1098C11.4194 11.3225 11.453 11.5783 11.2586 11.7377C10.7726 12.1397 9.9078 12.8872 9.43185 13.3059L9.42515 13.2992" fill="#008CF1"/>
</g>
<defs>
<clipPath id="clip0">
<rect width="77" height="23" fill="white"/>
</clipPath>
</defs>
</svg>
