<svg width="18" height="17" viewBox="0 0 18 17" fill="none" xmlns="http://www.w3.org/2000/svg">
<path d="M9 12.5V1L6.5 5.5L1.5 6L5.5 10L4.5 13V15L9 12.5Z" fill="#FF9A2F"/>
<path d="M8.72027 0.721728C8.81928 0.466282 9.18072 0.466282 9.27973 0.721728L11.0784 5.36267C11.121 5.47249 11.2239 5.54725 11.3415 5.55379L16.3111 5.83035C16.5847 5.84557 16.6964 6.18932 16.484 6.36242L12.6261 9.50723C12.5348 9.58165 12.4955 9.70261 12.5256 9.81647L13.7983 14.6283C13.8683 14.8932 13.5759 15.1056 13.3457 14.9572L9.16258 12.2598C9.06359 12.196 8.93641 12.196 8.83742 12.2598L4.65435 14.9572C4.4241 15.1056 4.13169 14.8932 4.20174 14.6283L5.47443 9.81647C5.50454 9.70261 5.46524 9.58165 5.37395 9.50723L1.51598 6.36242C1.30363 6.18932 1.41533 5.84557 1.68886 5.83035L6.6585 5.55379C6.7761 5.54725 6.87899 5.47249 6.92155 5.36267L8.72027 0.721728Z" stroke="#E5712C"/>
</svg>
