<svg width="17" height="16" viewBox="0 0 17 16" fill="none" xmlns="http://www.w3.org/2000/svg">
<path d="M8.22027 0.721728C8.31928 0.466282 8.68072 0.466282 8.77973 0.721728L10.5784 5.36267C10.621 5.47249 10.7239 5.54725 10.8415 5.55379L15.8111 5.83035C16.0847 5.84557 16.1964 6.18932 15.984 6.36242L12.1261 9.50723C12.0348 9.58165 11.9955 9.70261 12.0256 9.81647L13.2983 14.6283C13.3683 14.8932 13.0759 15.1056 12.8457 14.9572L8.66258 12.2598C8.56359 12.196 8.43641 12.196 8.33742 12.2598L4.15435 14.9572C3.9241 15.1056 3.63169 14.8932 3.70174 14.6283L4.97443 9.81647C5.00454 9.70261 4.96524 9.58165 4.87395 9.50723L1.01598 6.36242C0.803634 6.18932 0.915325 5.84557 1.18886 5.83035L6.1585 5.55379C6.2761 5.54725 6.37899 5.47249 6.42155 5.36267L8.22027 0.721728Z" fill="#FF9A2F" stroke="#E5712C"/>
</svg>
